<?xml version="1.0" encoding="utf-8"?>
<!-- Generator: Adobe Illustrator 17.0.0, SVG Export Plug-In . SVG Version: 6.00 Build 0)  -->
<!DOCTYPE svg PUBLIC "-//W3C//DTD SVG 1.1//EN" "http://www.w3.org/Graphics/SVG/1.1/DTD/svg11.dtd">
<svg version="1.1" id="Capa_1" xmlns="http://www.w3.org/2000/svg" xmlns:xlink="http://www.w3.org/1999/xlink" x="0px" y="0px"
	 width="200px" height="200px" viewBox="0 0 200 200" enable-background="new 0 0 200 200" xml:space="preserve">
<g>
	<path  fill="#FFFFFF" d="M168.514,164.945c3.28-6.349,3.113-13.035-6.704-15.381c3.535-8.516,4.381-19.98-5.491-19.604
		c11.059-40.139-9.267-90.424-55.441-91.702c-46.819-1.296-62.828,56.852-53.286,94.49c-1.844-0.071-3.688-0.135-5.532-0.23
		c-0.968-0.045-2.163,0.585-2.584,1.482c-4.799,10.215-4.088,17.893-0.072,23.663c-14.09,1.142-13.756,12.476-5.677,21.891
		c8.888,10.358,26.223,12.904,42.467,13.408c0.176,0.047,0.343,0.129,0.521,0.168c0.323,0.07,0.646,0.01,0.93-0.13
		c8.538,0.204,16.7-0.104,23.061-0.103c22.491,0.004,41.486-3.566,59.206-17.655c2.394-1.904,4.847-4.503,6.793-7.323
		c1.462,0.761,2.654-1.201,2.105-2.498C168.737,165.251,168.601,165.11,168.514,164.945z M149.99,154.892
		c-1.781,1.792-4.088,3.212-6.631,4.414c0.972-3.384,1.708-6.841,2.419-10.282c0.672-3.256,2.497-8.678,1.287-11.95
		c-0.055-0.149-0.137-0.262-0.209-0.389c0.466-0.233,0.955-0.433,1.414-0.676c1.036,1.86,4.208,2.327,5.769,0.413
		C163.977,138.782,152.875,151.99,149.99,154.892z M97.09,45.126c44.811-4.732,62.353,48.035,52.433,83.964
		c-9.218,2.439-17.914,5.141-26.937,7.171c-0.061-0.983-0.129-1.963-0.165-2.929c-0.178-4.833-0.225-9.721-0.675-14.547
		c13.946-0.465,20.433-14.615,16.736-28.797c-5.198-19.939-32.714-28.073-50.568-24.686c-27.62,5.24-32.198,53.308-2.478,53.218
		c-0.719,6.904-0.99,13.787-0.958,20.705c-10.684-0.611-21.326-2.176-31.838-4.109C49.984,100.535,52.722,49.812,97.09,45.126z
		 M142.552,138.708c-0.563,2.656-0.363,5.896-0.631,8.397c-0.492,4.583-1.228,9.124-2.043,13.657
		c-4.387,1.61-9.163,2.702-13.408,3.659c0.207-7.037,1.4-14.035,1.412-21.005C132.978,142.215,137.91,140.68,142.552,138.708z
		 M122.875,165.242c-0.002,0-0.004,0.001-0.005,0.001c-5.454,1.291-11.05,1.995-16.676,2.353c0.154-2.909,0.246-5.822,0.351-8.732
		c0.142-3.964,0.861-8.273-0.204-12.132c-0.036-0.13-0.103-0.232-0.161-0.342c4.13-0.226,8.211-0.679,12.245-1.264
		c0.928,0.468,2.055,0.326,2.845-0.424c0.567-0.097,1.149-0.149,1.713-0.255c-0.654,2.349-0.512,5.123-0.613,7.322
		C122.164,156.219,122.077,160.824,122.875,165.242z M115.584,118.178c0.619,0.138,1.201,0.197,1.799,0.289
		c-0.431,4.512-0.477,9.074-0.657,13.596c-0.07,1.761-0.266,3.609-0.33,5.448c-1.894,0.344-3.819,0.639-5.762,0.904
		c-1.984-12.001-1.382-23.124,2.217-34.02c5.462,1.383,12.283,1.427,13.421-5.351c0.496-2.953-2.926-4.334-4.696-1.98
		c-1.511,2.01-3.955,2.473-6.775,2.166c1.195-2.825,2.529-5.644,4.162-8.463c1.165-2.011-1.792-3.669-3.074-1.797
		c-2.096,3.062-3.845,6.193-5.288,9.378c-4.945-1.422-10.212-3.949-13.506-4.43c-2.282-0.334-4.363-0.222-6.233,0.252
		c-0.17-0.327-0.323-0.665-0.501-0.988c-1.067-1.937-3.739-0.545-3.376,1.424c0.073,0.397,0.169,0.794,0.248,1.191
		c-3.324,2.142-5.554,5.824-6.294,10.654c-0.297,1.938,2.178,2.614,2.915,0.804c1.259-3.095,2.8-5.124,4.541-6.414
		c2.049,7.891,5.048,15.727,7.791,23.26c1.725,4.736,3.38,10.688,6.541,15.045c-4.586,0.294-9.173,0.408-13.755,0.269
		c0.378-7.806,1.067-15.518,2.702-23.268c0.37-1.757-0.841-4.011-2.907-3.817c-21.574,2.027-20.786-23.453-9.656-35.151
		c10.066-10.581,27.557-6.294,39.011-1.025c16.59,7.631,23.791,37.572-1.756,36.254
		C113.053,112.234,112.354,117.456,115.584,118.178z M88.343,148.229c0.181-0.287,0.319-0.617,0.332-1.041
		c0.009-0.282,0.023-0.56,0.032-0.842c4.79,0.26,9.617,0.345,14.427,0.18c-0.03,0.071-0.075,0.128-0.097,0.206
		c-0.93,3.369-0.39,6.965-0.265,10.426c0.127,3.527,0.226,7.062,0.423,10.588c-4.513,0.193-9.032,0.2-13.502,0.119
		c-0.628-0.011-1.255-0.041-1.882-0.06c-0.134-3.284-0.762-6.707-0.72-9.871C87.131,154.93,88.1,151.448,88.343,148.229z
		 M99.437,118.149c-2.108-6.235-3.798-12.905-6.316-19.103c4.649-0.448,10.099,1.924,15.598,4.002
		c-3.982,11.378-4.101,23.408-0.862,35.708c-0.345,0.038-0.68,0.092-1.028,0.127C104.421,131.976,101.787,125.1,99.437,118.149z
		 M83.011,157.936c0.036,2.704-0.039,6.454,0.698,9.685c-4.624-0.276-9.226-0.801-13.778-1.607
		c-0.373-3.527-0.699-7.055-0.839-10.599c-0.148-3.761,0.839-7.43,0.915-11.105c4.567,0.729,9.235,1.34,13.998,1.726
		C82.508,149.478,82.972,154.974,83.011,157.936z M67.06,165.427c-3.173-0.655-6.325-1.411-9.425-2.396
		c-1.54-0.489-3.108-1.231-4.636-2.133c0.321-3.991,0.614-7.948,1.241-11.908c0.383-2.416,1.308-4.977,1.774-7.496
		c3.435,0.839,6.956,1.623,10.622,2.279C63.982,149.941,65.864,158.947,67.06,165.427z M48.912,136.746
		c0.082,0.092,0.161,0.188,0.254,0.266c-0.212,1.544,0.739,3.399,2.389,3.368c0.117,0.032,0.244,0.058,0.361,0.09
		c-0.567,2.105-0.721,4.418-0.979,6.456c-0.505,3.998-0.843,8.026-0.755,12.056C42.005,152.706,36.834,141.861,48.912,136.746z
		 M42.487,178.78c-4.975-2.983-8.58-8.41-7.36-13.053c2.75,4.975,6.232,10.145,10.25,14.556
		C44.39,179.831,43.421,179.34,42.487,178.78z M53.158,182.862c-2.467-2.396-5.144-4.638-7.49-7.091
		c-3.596-3.76-6.802-7.798-9.567-12.171c0.62-0.941,1.505-1.816,2.665-2.603c5.436,7.369,10.869,15.803,17.618,22.44
		C55.307,183.251,54.222,183.105,53.158,182.862z M63.147,184.352c-8.356-7.515-15.695-15.483-23.064-24.133
		c0.168-0.087,0.312-0.183,0.49-0.267c0.167-0.079,0.287-0.193,0.384-0.321c1.806,2.016,4.092,3.738,6.659,5.258
		c-0.142,0.3-0.128,0.671,0.171,0.986c4.892,5.147,9.464,10.585,14.362,15.727c0.859,0.902,1.77,1.91,2.718,2.937
		C64.302,184.489,63.719,184.408,63.147,184.352z M80.912,185.768c-3.081-3.243-6.675-6.232-10.037-8.976
		c-1.151-0.939-5.101-3.867-6.044-1.105c-0.229,0.671,0.752,1.028,1.105,0.466c0.153-0.244,6.118,5.69,6.694,6.303
		c0.864,0.921,1.738,1.916,2.629,2.912c-1.669-0.127-3.341-0.245-5.005-0.384c-2.2-1.576-4.375-3.197-6.397-5.088
		c-4.431-4.143-8.42-8.759-12.649-13.12c5.788,2.7,12.702,4.486,19.743,5.654c0.001,0.001,0.001,0.003,0.003,0.004
		c4.082,4.17,8.113,8.446,12.538,12.256c0.501,0.431,1.037,0.873,1.589,1.313C83.689,185.928,82.3,185.858,80.912,185.768z
		 M93.819,186.357c-1.212-0.46-2.45-0.853-3.639-1.429c-2.363-1.146-4.473-2.846-6.488-4.5c-2.847-2.336-5.46-4.928-8.237-7.335
		c3.927,0.509,7.816,0.835,11.518,1.04c3.397,3.086,6.771,6.197,10.301,9.134c1.218,1.013,2.496,2.109,3.838,3.127
		C98.683,186.419,96.253,186.413,93.819,186.357z M108.558,186.171c-2.906-2.515-6.698-4.384-9.687-6.713
		c-2.102-1.638-4.141-3.357-6.166-5.094c2.991,0.071,5.771,0.066,8.21,0.011c0.161-0.004,0.338-0.011,0.5-0.015
		c3.114,3.988,6.379,8.018,10.062,11.645C110.504,186.062,109.529,186.126,108.558,186.171z M117.198,185.567
		c-0.031-0.022-0.066-0.037-0.097-0.059c-2.197-1.538-4.157-3.467-6.086-5.32c-2.056-1.975-4.073-3.99-6.142-5.94
		c3.269-0.132,6.784-0.355,10.404-0.714c3.018,3.215,5.986,6.47,9.293,9.398c0.496,0.439,1.029,0.904,1.579,1.369
		C123.197,184.861,120.206,185.277,117.198,185.567z M131.519,183.081c-2.159-1.194-4.345-2.323-6.337-3.994
		c-2.228-1.869-4.309-3.908-6.385-5.949c2.678-0.331,5.39-0.754,8.087-1.274c2.007,2.166,3.982,4.36,6.209,6.308
		c1.202,1.051,2.676,2.208,4.262,2.952C135.443,181.875,133.501,182.54,131.519,183.081z M145.338,177.132
		c-1.035,0.657-2.091,1.258-3.162,1.82c-0.129-0.152-0.29-0.291-0.489-0.409c-2.481-1.468-4.916-2.269-7.189-4.186
		c-1.249-1.053-2.422-2.196-3.581-3.353c1.907-0.45,3.777-0.983,5.623-1.558c0.008,0.007,0.016,0.014,0.024,0.021
		c1.342,1.153,2.736,2.259,4.095,3.393c1.597,1.332,3.115,2.861,4.723,4.245C145.368,177.113,145.35,177.124,145.338,177.132z
		 M148.837,174.885c-1.972-1.953-4.56-3.517-6.694-5.042c-0.669-0.478-1.422-1.025-2.207-1.538c2.773-1.023,5.414-2.225,7.874-3.616
		c1.538,1.058,3.107,2.069,4.722,3.013c1.117,0.653,2.314,1.411,3.56,1.83C153.698,171.571,151.043,173.432,148.837,174.885z
		 M158.813,166.982c-1.698-0.944-3.505-1.634-5.258-2.513c-0.967-0.485-1.907-1.026-2.85-1.561c1.622-1.101,3.132-2.309,4.51-3.631
		c1.618,0.824,3.205,1.703,4.725,2.723c0.593,0.398,1.137,0.842,1.66,1.306C160.92,164.535,159.973,165.772,158.813,166.982z
		 M162.494,159.426c-1.564-1.039-3.249-1.883-4.968-2.654c0.525-0.637,1.037-1.286,1.503-1.971c0.13,0.109,0.219,0.238,0.376,0.334
		c2.107,1.286,3.036,2.774,3.184,4.355C162.558,159.469,162.524,159.446,162.494,159.426z"/>
	<path fill="#FFFFFF" d="M36.076,118.197c-3.146-0.564-6.183-0.75-9.382-0.734c-1.437,0.007-2.861,0.047-4.297-0.032
		c-0.395-0.03-0.788-0.078-1.178-0.145c-0.504-0.074-0.737-0.121-0.829-0.121c-1.261-1.461-3.642-0.875-3.915,1.364
		c-1.01,8.266,16.165,3.154,19.601,2.454C37.442,120.704,37.477,118.449,36.076,118.197z"/>
	<path fill="#FFFFFF" d="M37.55,104.428c-6.293-2.66-12.968-4.459-19.53-6.443c0.054-0.048,0.12-0.095,0.169-0.144
		c1.872-1.901-0.487-4.682-2.747-3.561c-2.352,1.167-3.95,1.662-4.675,4.416c-0.37,1.406,0.45,3.007,1.908,3.362
		c7.809,1.897,15.714,4.041,23.66,5.256C37.94,107.559,39.337,105.183,37.55,104.428z"/>
	<path fill="#FFFFFF" d="M38.374,80.419c-4.509-2.251-11.772-2.214-13.348-8.106c-0.51-1.908-3.845-2.196-4.145,0
		c-0.507,3.713,1.527,6.03,4.758,7.591c3.437,1.66,8.333,3.053,12.176,2.581C38.793,82.365,39.473,80.968,38.374,80.419z"/>
	<path fill="#FFFFFF" d="M43.868,59.932c-4.685-2.899-8.527-5.532-10.252-10.999c-0.636-2.015-3.843-2.28-4.34,0
		c-1.534,7.034,7.922,12.991,13.846,13.752C44.67,62.885,45.01,60.639,43.868,59.932z"/>
	<path fill="#FFFFFF" d="M54.538,42.65c-2.09-6.094-6.213-10.776-5.796-17.532c0.156-2.528-3.321-3.173-4.537-1.229
		c-4.018,6.421,3.187,15.221,6.804,20.249C52.205,45.801,55.297,44.863,54.538,42.65z"/>
	<path fill="#FFFFFF" d="M71.714,20.283c-0.11-2.227,0.239-5.074-1.072-6.976c-1.004-1.456-3.113-1.594-4.089,0
		c-1.264,2.065-0.37,4.726-0.069,6.976c0.382,2.856,0.612,5.744,1.167,8.572c0.387,1.972,3.667,2.019,4.016,0
		C72.155,26.028,71.855,23.132,71.714,20.283z"/>
	<path fill="#FFFFFF" d="M92.82,11.318c-0.072-1.586-1.558-2.241-2.906-1.667c-2.114,0.9-2.824,3.71-3.315,5.761
		c-0.625,2.612-0.578,5.558,0.386,8.074c0.696,1.817,3.774,1.736,3.629-0.491c-0.144-2.204-0.186-4.214,0.39-6.369
		C91.493,14.792,92.908,13.258,92.82,11.318z"/>
	<path fill="#FFFFFF" d="M117.858,5.851c-2.489,1.05-3.149,3.296-3.791,5.751c-0.778,2.975-1.381,6.19-1.165,9.27
		c0.219,3.136,4.464,3.044,4.803,0c0.269-2.423,0.857-4.82,1.555-7.152c0.453-1.517,1.332-4.112,1.512-4.956
		C121.102,7.213,119.658,5.092,117.858,5.851z"/>
	<path fill="#FFFFFF" d="M147.675,14.715c-3.119-0.735-5.131,2.162-6.318,4.638c-1.572,3.282-2.178,7.015-1.686,10.608
		c0.301,2.198,3.958,2.115,4.34,0c0.487-2.701,0.897-5.32,2.171-7.788c1.003-1.942,2.766-3.271,2.948-5.548
		C149.197,15.78,148.478,14.904,147.675,14.715z"/>
	<path fill="#FFFFFF" d="M163.134,34.069c-0.134-0.711-0.872-1.449-1.583-1.583c-3.027-0.572-5.223,2.832-6.995,4.809
		c-1.72,1.919-3.404,3.826-4.973,5.871c-1.257,1.638,1.234,4.129,2.872,2.872c1.92-1.473,3.717-3.042,5.518-4.657
		C160.01,39.552,163.725,37.199,163.134,34.069z"/>
	<path fill="#FFFFFF" d="M174.747,44.064c-3.194,0.059-5.781,2.911-7.81,5.123c-2.384,2.598-4.254,5.609-5.911,8.704
		c-1.454,2.716,2.383,4.899,4.089,2.39c1.591-2.34,3.227-4.646,5.145-6.732c1.93-2.099,5.142-3.525,6.459-6.048
		C177.497,46.009,176.55,44.03,174.747,44.064z"/>
	<path fill="#FFFFFF" d="M180.657,69.637c-5.028-1.088-11.284,3.234-15.512,5.594c-2.531,1.412-0.311,4.923,2.221,3.799
		c2.283-1.013,4.574-1.976,6.923-2.828c2.255-0.817,4.965-0.99,6.91-2.422C182.64,72.719,182.766,70.093,180.657,69.637z"/>
	<path fill="#FFFFFF" d="M182.851,96.977c-3.171-1.253-8.025-0.44-11.422-0.554c-2.993-0.101-5.905-0.298-8.81,0.302
		c-1.657,0.342-1.589,2.885,0,3.271c2.882,0.7,5.816,1.052,8.81,1.363c3.31,0.345,8.238,1.711,11.422,0.508
		C185.285,100.947,185.228,97.915,182.851,96.977z"/>
	<path fill="#FFFFFF" d="M188.714,117.487c-3.21-2.093-8.821-1.072-12.537-1.221c-3.976-0.158-8.101-0.969-12.045-0.63
		c-1.908,0.164-2.376,2.3-0.924,3.411c2.779,2.126,7.004,2.117,10.367,2.555c4.216,0.548,11.348,2.494,15.138,0.09
		C190.3,120.686,190.267,118.5,188.714,117.487z"/>
</g>
</svg>
